<svg width="100" height="100" viewBox="0 0 100 100" fill="none" xmlns="http://www.w3.org/2000/svg">
<path d="M87.6623 44.0652C92.9164 44.1004 94.6175 42.614 95.2726 41.6492C97.7109 38.4616 93.8921 32.3521 84.9385 27.7172C88.4112 21.1585 90.8261 15.2795 92.0443 11.0567C92.7052 8.74613 92.2574 7.34571 92.1323 7.10157C91.7959 9.1563 89.033 16.5666 82.7075 26.643C77.8191 24.4515 71.6558 22.7171 64.3721 21.9945C62.624 18.6858 57.5519 9.52154 52.5462 4.62495C49.2533 1.39246 46.6175 0.206892 44.5605 0.0408726H44.5507C41.8465 -0.261868 40.118 1.18347 39.1931 2.18936C35.8299 5.80857 34.4357 11.7345 34.3047 18.6096C32.889 16.1975 30.9474 13.799 28.7319 13.5451H28.6967C24.657 12.8654 21.1901 19.2522 21.6575 29.4223C14.1567 29.6919 7.77448 30.5454 3.4727 31.6158C1.53691 32.0943 0.301124 33.0357 0 33.5142C0.195535 33.44 4.37999 31.7134 21.8139 31.7134C22.8346 42.0652 27.6311 51.6005 26.8978 49.915C24.9953 52.9228 19.4206 62.0949 17.647 68.9974C16.4993 73.4662 16.7926 76.3433 17.6764 78.2046C18.7655 80.6949 20.8851 81.4703 22.2128 81.7711C27.1012 82.8864 33.0415 81.0621 39.1657 77.6421C37.6933 80.15 36.4478 83.2106 37.3941 85.3259C38.8235 89.1638 46.0935 88.9705 54.6873 83.4801C58.6332 89.7654 62.5224 94.7968 65.5786 97.957C66.0803 98.4973 66.6564 98.9635 67.2895 99.3418C68.2946 99.9688 68.9672 100 68.9672 100C67.356 98.6816 62.319 92.578 56.7384 82.0738C61.0832 78.9488 65.6646 74.4819 69.9312 68.5443C93.9468 69.4427 97.9494 63.7082 98.8704 62.3644C101.739 58.4816 99.5411 51.1455 87.6623 44.0652ZM72.4399 64.8118C77.0956 57.4464 78.3724 51.5752 78.1984 46.7782C83.646 50.2099 87.4238 54.1182 87.7914 58.2687C88.0143 60.7941 86.2075 63.9563 72.4399 64.8118ZM42.3549 75.7202C44.2633 74.5034 46.1737 73.1576 48.0645 71.7182C49.3707 74.3217 50.7238 76.8159 52.0925 79.1773C44.1538 83.4469 38.6319 81.6695 42.3549 75.7202ZM84.3949 42.2527C82.3829 41.2097 80.2574 40.2331 78.0635 39.3132C79.6175 36.9557 81.1003 34.5523 82.51 32.106C90.1476 36.8131 91.485 42.4929 84.3949 42.2527ZM54.5328 77.7339C53.4554 75.5171 52.3819 73.144 51.3065 70.6166C59.7634 70.8646 63.5118 66.9583 63.6799 66.6302C63.6799 66.6438 58.7916 69.6849 51.4531 69.0228C57.4437 64.0247 63.007 58.5369 68.0853 52.6162C69.7878 50.6227 71.4127 48.5972 72.96 46.5399C72.8896 46.4832 72.6589 45.9539 69.7318 44.1961C59.6226 55.9678 49.7207 63.3371 43.7745 66.8372C39.7484 64.6536 35.7888 60.63 32.8812 54.8272C28.9705 47.0301 27.0151 38.735 26.7082 32.1568C29.1132 32.3345 31.6493 32.5806 34.3047 32.9146C29.9462 40.1023 31.4909 45.2196 31.6708 45.4598C31.6708 45.4461 31.4851 39.7624 35.6089 33.8248C37.3662 44.0768 40.297 54.0932 44.3435 63.677C44.5253 63.6028 44.7033 63.8489 47.9941 62.0656C42.8457 47.5204 41.3928 35.0787 41.3459 28.1919C45.2566 25.766 50.7668 24.3246 57.3074 24.7133C66.0224 25.2348 74.1939 27.6918 80.0521 30.7114C78.6586 32.7505 77.138 34.8645 75.4903 37.0534C71.4368 29.686 66.2493 28.4829 65.9364 28.5141C65.9579 28.5141 71.0008 31.2622 74.055 37.737C66.723 35.0491 59.1791 32.9774 51.502 31.5435C48.9474 31.0706 46.3788 30.6766 43.7999 30.3618C43.7862 30.4497 43.446 30.7232 43.3775 34.3326C58.6038 37.1627 70.0974 42.1238 76.0769 45.5067C76.2216 50.1064 74.7179 55.587 71.1083 61.048C66.2982 68.3353 60.0821 74.1791 54.5328 77.7339ZM59.8905 21.678C51.1774 21.3538 45.503 23.1292 41.3752 25.7152C41.7663 15.5002 45.5421 10.797 48.8466 11.0118C52.1512 10.1837 59.5815 21.1995 59.8905 21.678ZM34.3438 22.2835C34.4377 24.6488 34.6547 27.0922 34.9715 29.5649C32.1264 29.3989 29.3518 29.3208 26.6808 29.3188C26.6651 29.9517 26.6573 19.3577 31.5046 19.6331H31.5222C32.6485 19.846 33.6008 20.9769 34.3438 22.2835ZM28.8571 53.9248C32.9164 61.6789 37.3238 65.7551 41.6157 68.0482C32.4667 72.8842 26.4559 71.9545 25.0109 68.929C24.9718 68.888 22.8346 65.9407 28.8571 53.9268V53.9248Z" fill="white"/>
</svg>
